<svg width="252" height="57" viewBox="0 0 252 57" fill="none" xmlns="http://www.w3.org/2000/svg">
<rect x="0.585266" y="0.217655" width="250.829" height="56.5647" rx="14.5647" fill="white" fill-opacity="0.7"/>
<path d="M27.4766 18.8605V19.3683C27.4766 20.0652 27.5015 20.7921 27.5513 21.5487C27.6011 22.2955 27.6757 23.082 27.7753 23.9084L26.6851 24.0876C26.486 22.6539 25.8089 21.5388 24.654 20.7423C23.4991 19.9358 21.9907 19.5326 20.1288 19.5326C17.6497 19.5326 15.7331 20.2942 14.3791 21.8176C13.0349 23.3309 12.3629 25.4815 12.3629 28.2693C12.3629 31.2462 13.1345 33.6556 14.6777 35.4976C16.2309 37.3295 18.2421 38.2455 20.7113 38.2455C22.2645 38.2455 23.6086 37.8871 24.7436 37.1702C25.8886 36.4534 26.7797 35.403 27.4169 34.019L28.4175 34.5119C28.0989 35.159 27.8101 35.8211 27.5513 36.4982C27.2924 37.1652 27.0634 37.8373 26.8643 38.5143C25.789 39.0022 24.6938 39.3706 23.5787 39.6195C22.4636 39.8684 21.3435 39.9928 20.2184 39.9928C16.9129 39.9928 14.2347 38.9723 12.1837 36.9313C10.1426 34.8803 9.12211 32.1871 9.12211 28.8517C9.12211 25.5661 10.2024 22.8928 12.3629 20.8319C14.5234 18.761 17.3162 17.7255 20.7411 17.7255C21.7567 17.7255 22.827 17.8201 23.9521 18.0093C25.0871 18.1984 26.2619 18.4822 27.4766 18.8605ZM30.6577 18.1885C31.3646 18.2283 32.0416 18.2582 32.6887 18.2781C33.3359 18.298 33.9233 18.308 34.451 18.308C35.0583 18.308 35.6806 18.298 36.3178 18.2781C36.955 18.2582 37.6072 18.2283 38.2742 18.1885V19.219H37.871C37.0546 19.219 36.502 19.438 36.2133 19.8761C35.9345 20.3042 35.7951 21.4542 35.7951 23.3259V24.0577V27.7316C36.4423 27.7515 37.1243 27.7665 37.8411 27.7764C38.568 27.7864 39.5785 27.7914 40.8728 27.7914C42.197 27.7914 43.347 27.7864 44.3227 27.7764C45.3084 27.7665 46.309 27.7515 47.3245 27.7316V23.5649C47.3245 21.5836 47.1802 20.3639 46.8914 19.9059C46.6127 19.448 46.0651 19.219 45.2487 19.219H44.8454V18.1885C45.5125 18.2283 46.1646 18.2582 46.8018 18.2781C47.449 18.298 48.0812 18.308 48.6985 18.308C49.2262 18.308 49.8087 18.298 50.4459 18.2781C51.0831 18.2582 51.7551 18.2283 52.462 18.1885V19.219C52.4122 19.219 52.3425 19.214 52.2529 19.204C52.1633 19.1941 52.0986 19.1891 52.0588 19.1891C51.2921 19.1891 50.7694 19.433 50.4907 19.9209C50.2119 20.3988 50.0725 21.4293 50.0725 23.0123C50.0725 23.311 50.0775 23.8785 50.0874 24.7149C50.0974 25.5512 50.1024 26.2382 50.1024 26.7758V30.7484C50.1024 31.286 50.0974 31.978 50.0874 32.8243C50.0775 33.6606 50.0725 34.2331 50.0725 34.5417C50.0725 36.1746 50.2119 37.2399 50.4907 37.7377C50.7694 38.2355 51.2921 38.4845 52.0588 38.4845C52.1982 38.4845 52.3027 38.4845 52.3724 38.4845C52.4521 38.4745 52.5218 38.4695 52.5815 38.4695V39.5C51.7949 39.4602 51.0631 39.4303 50.3861 39.4104C49.719 39.3905 49.1565 39.3805 48.6985 39.3805C48.1609 39.3805 47.5535 39.3905 46.8765 39.4104C46.2094 39.4303 45.4926 39.4602 44.7259 39.5V38.4546C44.7857 38.4546 44.8753 38.4596 44.9948 38.4695C45.1142 38.4795 45.1989 38.4845 45.2487 38.4845C46.0651 38.4845 46.6127 38.2604 46.8914 37.8124C47.1802 37.3644 47.3245 36.2841 47.3245 34.5716V32.7645V29.4939H47.1304C44.5716 29.4541 42.6998 29.4342 41.515 29.4342C40.619 29.4342 39.7627 29.4441 38.9463 29.464C38.8368 29.464 38.777 29.464 38.7671 29.464C38.339 29.464 37.876 29.469 37.3782 29.479C36.8804 29.479 36.3527 29.4839 35.7951 29.4939V33.0483V34.2431C35.7951 36.1547 35.9395 37.3395 36.2282 37.7975C36.517 38.2555 37.0745 38.4845 37.9009 38.4845C37.9507 38.4845 38.0353 38.4795 38.1548 38.4695C38.2742 38.4596 38.3639 38.4546 38.4236 38.4546V39.5C37.657 39.4602 36.9351 39.4303 36.2581 39.4104C35.591 39.3905 34.9887 39.3805 34.451 39.3805C33.993 39.3805 33.4305 39.3905 32.7634 39.4104C32.0963 39.4303 31.3646 39.4602 30.568 39.5V38.4695C30.6278 38.4695 30.6925 38.4745 30.7622 38.4845C30.8418 38.4845 30.9464 38.4845 31.0758 38.4845C31.8524 38.4845 32.3801 38.2355 32.6589 37.7377C32.9377 37.2399 33.077 36.1746 33.077 34.5417C33.077 34.2331 33.0721 33.6606 33.0621 32.8243C33.0521 31.978 33.0472 31.286 33.0472 30.7484V26.7758C33.0472 26.278 33.0521 25.6458 33.0621 24.8791C33.0721 24.1025 33.077 23.5749 33.077 23.2961C33.077 21.5736 32.9327 20.4585 32.6439 19.9507C32.3652 19.443 31.8325 19.1891 31.0459 19.1891C31.0161 19.1891 30.9563 19.1941 30.8667 19.204C30.7771 19.214 30.7074 19.219 30.6577 19.219V18.1885ZM54.9113 18.1885C55.6082 18.2283 56.3002 18.2582 56.9872 18.2781C57.6742 18.298 58.3462 18.308 59.0033 18.308C59.5609 18.308 60.1831 18.298 60.8701 18.2781C61.5571 18.2582 62.2839 18.2283 63.0506 18.1885V19.219H62.7967C62.1495 19.219 61.6617 19.2936 61.3331 19.443C61.0145 19.5923 60.7905 19.8412 60.6611 20.1897C60.5814 20.4187 60.5217 20.7921 60.4818 21.3098C60.452 21.8176 60.437 22.6489 60.437 23.8038V26.7758V34.2132C60.437 35.388 60.4619 36.2144 60.5117 36.6923C60.5714 37.1702 60.6611 37.5237 60.7805 37.7527C60.91 38.0016 61.139 38.1808 61.4675 38.2903C61.806 38.3998 62.279 38.4546 62.8863 38.4546H63.1999V39.5C62.3437 39.4602 61.5521 39.4303 60.8253 39.4104C60.0985 39.3905 59.4912 39.3805 59.0033 39.3805C58.4259 39.3805 57.7737 39.3905 57.0469 39.4104C56.3201 39.4303 55.5584 39.4602 54.7619 39.5V38.4546H55.0606C55.6779 38.4546 56.1508 38.3998 56.4794 38.2903C56.808 38.1808 57.0369 38.0016 57.1664 37.7527C57.3058 37.4838 57.4004 37.0458 57.4501 36.4384C57.5099 35.8211 57.5397 34.711 57.5397 33.108V30.7484V24.909C57.5397 23.3459 57.5198 22.2357 57.48 21.5786C57.4402 20.9115 57.3755 20.4486 57.2859 20.1897C57.1664 19.8412 56.9473 19.5923 56.6287 19.443C56.3201 19.2936 55.8372 19.219 55.1801 19.219H54.9113V18.1885ZM65.6342 18.1437C66.6996 18.2034 67.506 18.2482 68.0536 18.2781C68.6112 18.298 69.0592 18.308 69.3977 18.308C70.0449 18.308 70.6771 18.298 71.2944 18.2781C71.9217 18.2482 72.5439 18.2084 73.1612 18.1586V19.1891H72.6983C71.9117 19.1891 71.379 19.4629 71.1003 20.0105C70.8215 20.5481 70.6821 21.7927 70.6821 23.7441V26.7161L70.7269 37.6631C71.2845 37.6929 71.8121 37.7178 72.31 37.7377C72.8177 37.7477 73.2956 37.7527 73.7437 37.7527C76.412 37.7527 78.1294 37.5087 78.8961 37.0209C79.6727 36.5231 80.29 35.5672 80.7479 34.1535L81.8232 34.482C81.5146 35.3383 81.2408 36.1796 81.0018 37.0059C80.7629 37.8323 80.5538 38.6637 80.3746 39.5C78.7218 39.4502 77.1985 39.4154 75.8046 39.3955C74.4207 39.3656 73.1214 39.3507 71.9067 39.3507C71.0505 39.3507 70.0947 39.3656 69.0393 39.3955C67.9839 39.4154 66.7394 39.4502 65.3057 39.5V38.5293C65.3754 38.5392 65.4401 38.5492 65.4998 38.5591C65.5695 38.5591 65.6691 38.5591 65.7985 38.5591C67.1426 38.5492 67.8197 36.6326 67.8296 32.8093C67.8296 31.9431 67.8346 31.2661 67.8445 30.7783L67.8744 26.7161C67.8744 26.278 67.8794 25.7155 67.8893 25.0285C67.8993 24.3415 67.9043 23.8636 67.9043 23.5948C67.9043 21.7628 67.7549 20.573 67.4562 20.0254C67.1675 19.4679 66.6 19.1891 65.7537 19.1891H65.6342V18.1437ZM83.1375 18.1437C84.2028 18.2034 85.0093 18.2482 85.5569 18.2781C86.1144 18.298 86.5624 18.308 86.901 18.308C87.5481 18.308 88.1803 18.298 88.7976 18.2781C89.4249 18.2482 90.0472 18.2084 90.6644 18.1586V19.1891H90.2015C89.4149 19.1891 88.8823 19.4629 88.6035 20.0105C88.3247 20.5481 88.1853 21.7927 88.1853 23.7441V26.7161L88.2301 37.6631C88.7877 37.6929 89.3154 37.7178 89.8132 37.7377C90.321 37.7477 90.7989 37.7527 91.2469 37.7527C93.9152 37.7527 95.6327 37.5087 96.3993 37.0209C97.1759 36.5231 97.7932 35.5672 98.2512 34.1535L99.3265 34.482C99.0178 35.3383 98.744 36.1796 98.5051 37.0059C98.2661 37.8323 98.057 38.6637 97.8778 39.5C96.2251 39.4502 94.7017 39.4154 93.3079 39.3955C91.9239 39.3656 90.6246 39.3507 89.4099 39.3507C88.5537 39.3507 87.5979 39.3656 86.5425 39.3955C85.4872 39.4154 84.2426 39.4502 82.8089 39.5V38.5293C82.8786 38.5392 82.9433 38.5492 83.0031 38.5591C83.0727 38.5591 83.1723 38.5591 83.3017 38.5591C84.6458 38.5492 85.3229 36.6326 85.3328 32.8093C85.3328 31.9431 85.3378 31.2661 85.3478 30.7783L85.3776 26.7161C85.3776 26.278 85.3826 25.7155 85.3926 25.0285C85.4025 24.3415 85.4075 23.8636 85.4075 23.5948C85.4075 21.7628 85.2582 20.573 84.9595 20.0254C84.6707 19.4679 84.1032 19.1891 83.2569 19.1891H83.1375V18.1437Z" fill="black"/>
<path d="M108.902 42.0333V16.4604C108.902 16.0643 109.064 15.6843 109.353 15.4042C109.642 15.1241 110.034 14.9667 110.443 14.9667H124.45C124.859 14.9667 125.251 15.1241 125.54 15.4042C125.829 15.6843 125.991 16.0643 125.991 16.4604V22.047" stroke="#449970" stroke-width="2.27573" stroke-linecap="round" stroke-linejoin="round"/>
<path d="M106.699 42.0333H137.301M135.098 42.0333H116.715V29.0377L125.914 22.047L135.098 29.0377V42.0333Z" stroke="#449970" stroke-width="2.27573" stroke-linecap="round" stroke-linejoin="round"/>
<path d="M119.057 18.0139H115.852C115.001 18.0139 114.311 18.6827 114.311 19.5077V20.7325C114.311 21.5575 115.001 22.2263 115.852 22.2263H119.057C119.908 22.2263 120.598 21.5575 120.598 20.7325V19.5077C120.598 18.6827 119.908 18.0139 119.057 18.0139Z" stroke="#449970" stroke-width="2.27573" stroke-linecap="round" stroke-linejoin="round"/>
<path d="M127.547 30.5763H124.281M122.123 42.0333V34.9082H129.689V42.0333M125.914 34.9082V42.0333" stroke="#449970" stroke-width="2.27573" stroke-linecap="round" stroke-linejoin="round"/>
<path d="M150.584 29.1653C151.002 29.2251 151.381 29.2699 151.719 29.2997C152.058 29.3296 152.391 29.3445 152.72 29.3445C154.591 29.3445 156.01 28.9314 156.976 28.105C157.952 27.2686 158.44 26.049 158.44 24.446C158.44 23.0024 157.962 21.8524 157.006 20.9962C156.05 20.1399 154.756 19.7118 153.123 19.7118C152.675 19.7118 152.247 19.7317 151.839 19.7715C151.44 19.8014 151.047 19.8512 150.659 19.9209C150.629 21.265 150.609 22.624 150.599 23.998C150.589 25.362 150.584 27.0845 150.584 29.1653ZM145.267 38.5293C145.347 38.5392 145.422 38.5492 145.491 38.5591C145.571 38.5591 145.69 38.5591 145.85 38.5591C146.646 38.5591 147.184 38.2903 147.463 37.7527C147.751 37.2051 147.896 35.9954 147.896 34.1236C147.896 33.8448 147.891 33.3321 147.881 32.5853C147.871 31.8386 147.866 31.2362 147.866 30.7783V21.4293C147.866 20.573 147.712 19.9856 147.403 19.667C147.094 19.3484 146.532 19.1891 145.715 19.1891H145.596V18.1437C146.273 18.1935 146.945 18.2283 147.612 18.2482C148.289 18.2681 148.956 18.2781 149.613 18.2781C150.35 18.2781 151.226 18.2582 152.242 18.2183C153.267 18.1686 153.929 18.1437 154.228 18.1437C156.408 18.1437 158.151 18.6863 159.455 19.7715C160.759 20.8568 161.412 22.2855 161.412 24.0577C161.412 26.1585 160.695 27.7963 159.261 28.9712C157.837 30.1361 155.821 30.7185 153.212 30.7185C152.954 30.7185 152.6 30.7036 152.152 30.6737C151.714 30.6438 151.191 30.599 150.584 30.5393V35.0346C150.584 36.5679 150.738 37.5336 151.047 37.9319C151.366 38.3202 151.998 38.5143 152.944 38.5143C152.974 38.5143 153.023 38.5093 153.093 38.4994C153.173 38.4894 153.232 38.4845 153.272 38.4845C153.322 38.4845 153.357 38.4894 153.377 38.4994C153.407 38.4994 153.432 38.5044 153.451 38.5143L153.466 39.5C152.74 39.4602 152.008 39.4303 151.271 39.4104C150.534 39.3905 149.807 39.3805 149.091 39.3805C148.742 39.3805 148.229 39.3905 147.552 39.4104C146.885 39.4303 146.124 39.4602 145.267 39.5V38.5293ZM163.607 18.1437C164.672 18.2034 165.479 18.2482 166.026 18.2781C166.584 18.298 167.032 18.308 167.37 18.308C168.018 18.308 168.65 18.298 169.267 18.2781C169.894 18.2482 170.517 18.2084 171.134 18.1586V19.1891H170.671C169.884 19.1891 169.352 19.4629 169.073 20.0105C168.794 20.5481 168.655 21.7927 168.655 23.7441V26.7161L168.7 37.6631C169.257 37.6929 169.785 37.7178 170.283 37.7377C170.79 37.7477 171.268 37.7527 171.716 37.7527C174.385 37.7527 176.102 37.5087 176.869 37.0209C177.645 36.5231 178.263 35.5672 178.721 34.1535L179.796 34.482C179.487 35.3383 179.213 36.1796 178.974 37.0059C178.736 37.8323 178.526 38.6637 178.347 39.5C176.694 39.4502 175.171 39.4154 173.777 39.3955C172.393 39.3656 171.094 39.3507 169.879 39.3507C169.023 39.3507 168.067 39.3656 167.012 39.3955C165.957 39.4154 164.712 39.4502 163.278 39.5V38.5293C163.348 38.5392 163.413 38.5492 163.472 38.5591C163.542 38.5591 163.642 38.5591 163.771 38.5591C165.115 38.5492 165.792 36.6326 165.802 32.8093C165.802 31.9431 165.807 31.2661 165.817 30.7783L165.847 26.7161C165.847 26.278 165.852 25.7155 165.862 25.0285C165.872 24.3415 165.877 23.8636 165.877 23.5948C165.877 21.7628 165.728 20.573 165.429 20.0254C165.14 19.4679 164.573 19.1891 163.726 19.1891H163.607V18.1437ZM190.638 20.9962L187.218 29.927C187.408 29.927 187.681 29.932 188.04 29.9419C189.165 29.9718 189.931 29.9867 190.34 29.9867C190.837 29.9867 191.739 29.9718 193.043 29.9419C193.332 29.932 193.551 29.927 193.7 29.927L190.638 20.9962ZM189.966 18.1885H192.535C193.829 22.1411 195.054 25.7503 196.209 29.016C197.374 32.2817 198.29 34.7359 198.957 36.3787C199.355 37.3245 199.699 37.907 199.987 38.126C200.276 38.3451 200.689 38.4546 201.227 38.4546H201.526V39.5C200.749 39.4602 200.037 39.4303 199.39 39.4104C198.753 39.3905 198.215 39.3805 197.777 39.3805C197.219 39.3805 196.607 39.3905 195.94 39.4104C195.273 39.4303 194.566 39.4602 193.819 39.5V38.4546H194.103C194.81 38.4546 195.293 38.3749 195.552 38.2156C195.811 38.0464 195.94 37.7427 195.94 37.3046C195.94 37.1453 195.92 36.9711 195.88 36.7819C195.841 36.5828 195.776 36.3488 195.686 36.08L194.223 31.51C193.844 31.51 193.327 31.5051 192.669 31.4951C191.475 31.4652 190.708 31.4503 190.37 31.4503C189.692 31.4503 189.05 31.4553 188.443 31.4652C187.846 31.4652 187.223 31.4752 186.576 31.4951C185.869 33.2773 185.386 34.5766 185.128 35.393C184.869 36.2094 184.739 36.7919 184.739 37.1403C184.739 37.6282 184.869 37.9717 185.128 38.1708C185.386 38.36 185.849 38.4546 186.516 38.4546H186.92V39.5C186.193 39.4602 185.511 39.4303 184.874 39.4104C184.246 39.3905 183.684 39.3805 183.186 39.3805C182.788 39.3805 182.29 39.3905 181.693 39.4104C181.095 39.4303 180.448 39.4602 179.751 39.5V38.4695C180.458 38.4496 181.016 38.3102 181.424 38.0514C181.842 37.7825 182.205 37.3395 182.514 36.7222C183.072 35.5573 184.057 33.2275 185.471 29.7328C186.895 26.2282 188.393 22.3801 189.966 18.1885ZM221.926 18.8605V19.3683C221.926 20.0652 221.951 20.7921 222.001 21.5487C222.051 22.2955 222.125 23.082 222.225 23.9084L221.135 24.0876C220.935 22.6539 220.258 21.5388 219.103 20.7423C217.949 19.9358 216.44 19.5326 214.578 19.5326C212.099 19.5326 210.183 20.2942 208.829 21.8176C207.484 23.3309 206.812 25.4815 206.812 28.2693C206.812 31.2462 207.584 33.6556 209.127 35.4976C210.68 37.3295 212.692 38.2455 215.161 38.2455C216.714 38.2455 218.058 37.8871 219.193 37.1702C220.338 36.4534 221.229 35.403 221.866 34.019L222.867 34.5119C222.548 35.159 222.26 35.8211 222.001 36.4982C221.742 37.1652 221.513 37.8373 221.314 38.5143C220.239 39.0022 219.143 39.3706 218.028 39.6195C216.913 39.8684 215.793 39.9928 214.668 39.9928C211.362 39.9928 208.684 38.9723 206.633 36.9313C204.592 34.8803 203.572 32.1871 203.572 28.8517C203.572 25.5661 204.652 22.8928 206.812 20.8319C208.973 18.761 211.766 17.7255 215.191 17.7255C216.206 17.7255 217.277 17.8201 218.402 18.0093C219.537 18.1984 220.711 18.4822 221.926 18.8605ZM225.406 18.1885C227.148 18.2482 228.706 18.293 230.08 18.3229C231.454 18.3528 232.639 18.3677 233.635 18.3677C234.74 18.3677 235.855 18.3528 236.98 18.3229C238.115 18.293 239.265 18.2482 240.43 18.1885C240.44 18.9352 240.47 19.7018 240.52 20.4884C240.569 21.265 240.629 22.0466 240.699 22.8331L239.698 22.9227C239.619 21.728 239.25 20.9215 238.593 20.5033C237.936 20.0752 236.517 19.8611 234.337 19.8611C233.779 19.8611 232.759 19.8761 231.275 19.9059C230.976 19.9159 230.757 19.9209 230.618 19.9209C230.598 21.1156 230.568 22.5792 230.528 24.3116C230.489 26.044 230.464 27.1691 230.454 27.6868H230.917C231.504 27.6868 232.236 27.6968 233.112 27.7167C233.998 27.7266 234.591 27.7316 234.889 27.7316C236.333 27.7316 237.284 27.5972 237.742 27.3284C238.21 27.0596 238.464 26.5617 238.503 25.8349L239.444 25.9245C239.375 26.5418 239.32 27.1143 239.28 27.642C239.25 28.1697 239.235 28.6576 239.235 29.1056C239.235 29.3645 239.26 29.922 239.31 30.7783C239.33 31.0869 239.345 31.3209 239.355 31.4802L238.384 31.51V31.3906C238.384 30.5443 238.135 29.9718 237.637 29.6731C237.149 29.3744 235.999 29.2251 234.187 29.2251H231.529H230.454C230.454 29.7129 230.449 30.39 230.439 31.2562C230.429 32.1124 230.424 32.7297 230.424 33.108C230.424 33.7652 230.429 34.4521 230.439 35.169C230.449 35.8759 230.469 36.7072 230.499 37.6631C230.996 37.7228 231.559 37.7676 232.186 37.7975C232.823 37.8273 233.52 37.8423 234.277 37.8423C236.776 37.8423 238.419 37.6033 239.205 37.1254C240.002 36.6376 240.634 35.7066 241.102 34.3327L242.177 34.6911C241.879 35.5175 241.615 36.3289 241.386 37.1254C241.157 37.9219 240.958 38.7134 240.788 39.5C239.225 39.4403 237.772 39.3955 236.427 39.3656C235.083 39.3357 233.869 39.3208 232.783 39.3208C231.3 39.3208 228.91 39.3755 225.615 39.4851L225.077 39.5V38.5293C225.147 38.5392 225.212 38.5492 225.271 38.5591C225.341 38.5591 225.441 38.5591 225.57 38.5591C226.894 38.5591 227.566 36.6973 227.586 32.9736C227.596 32.0377 227.606 31.3059 227.616 30.7783L227.676 26.7011C227.686 25.825 227.691 24.9737 227.691 24.1473C227.701 23.321 227.706 22.4249 227.706 21.4591C227.706 20.6029 227.546 20.0105 227.228 19.6819C226.909 19.3534 226.342 19.1891 225.525 19.1891H225.406V18.1885Z" fill="black"/>
</svg>
